<svg xmlns="http://www.w3.org/2000/svg" viewBox="0 0 380 120" width="100%" height="100%">
  <!-- Rumbo — logo horizontal sobre fondo oscuro. Fondo Noche Bosque #2A3932. -->
  <rect width="380" height="120" fill="#2A3932" />

  <defs>
    <linearGradient id="rumbo-aleta-ho" x1="0" y1="239" x2="0" y2="429" gradientUnits="userSpaceOnUse" gradientTransform="translate(15.16 11.67) scale(0.1884)">
      <stop offset="0" stop-color="#0A8559" />
      <stop offset="1" stop-color="#0CC97D" />
    </linearGradient>
  </defs>

  <g id="rumbo-horizontal-oscuro">
    <!-- Simbolo "La flecha" (aleta aclarada para no cerrarse contra el fondo) -->
    <g stroke-linejoin="round" transform="translate(15.16 11.67) scale(0.1884)">
      <path d="M 347 128 L 372 261 L 172 308 L 136 237 Z" fill="#17F296" stroke="#17F296" stroke-width="72" />
      <path d="M 377 279 L 259 389 L 257 282 Z" fill="url(#rumbo-aleta-ho)" stroke="url(#rumbo-aleta-ho)" stroke-width="63" />
    </g>

    <!-- Wordmark "rumbo" en blanco -->
    <path d="M135.23 82L124.22 82L124.22 65.34L124.22 46.10L133.19 46.10L133.40 58.27L134.76 58.27Q135.23 53.51 136.56 50.69Q137.88 47.86 140.37 46.57Q142.85 45.28 146.52 45.28L146.52 45.28Q147.06 45.28 147.74 45.31Q148.42 45.35 149.31 45.48L149.31 45.48L148.90 57.18Q147.81 56.64 146.55 56.47Q145.30 56.30 144.34 56.30L144.34 56.30Q141.69 56.30 139.75 57.32Q137.82 58.34 136.69 60.44Q135.57 62.55 135.23 65.75L135.23 65.75L135.23 82ZM164.81 82.95L164.81 82.95Q158.42 82.95 155.19 78.63Q151.96 74.32 151.96 65.48L151.96 65.48L151.96 46.10L162.98 46.10L162.98 64.05Q162.98 69.08 164.47 71.56Q165.97 74.04 169.03 74.04L169.03 74.04Q170.86 74.04 172.19 73.13Q173.52 72.21 174.43 70.54Q175.35 68.88 175.79 66.70Q176.24 64.52 176.24 61.94L176.24 61.94L176.24 46.10L187.18 46.10L187.18 67.45L187.18 82L178.48 82L178.28 70.92L176.92 70.92Q175.90 75.13 174.37 77.82Q172.84 80.50 170.52 81.73Q168.21 82.95 164.81 82.95ZM204.52 82L193.58 82L193.58 58.81L193.58 46.10L202.21 46.10L202.35 56.64L203.71 56.64Q204.66 52.76 206.22 50.21Q207.79 47.66 210.03 46.40Q212.28 45.14 215.27 45.14L215.27 45.14Q218.40 45.14 220.47 46.47Q222.54 47.80 223.77 50.35Q224.99 52.90 225.40 56.64L225.40 56.64L226.56 56.64Q227.64 52.62 229.41 50.07Q231.18 47.52 233.63 46.33Q236.08 45.14 238.93 45.14L238.93 45.14Q241.99 45.14 244.27 46.33Q246.55 47.52 248.08 49.87Q249.61 52.22 250.36 55.72Q251.10 59.22 251.10 63.84L251.10 63.84L251.10 82L240.09 82L240.09 65.20Q240.09 61.60 239.51 59.22Q238.93 56.84 237.71 55.65Q236.48 54.46 234.58 54.46L234.58 54.46Q232.40 54.46 230.87 55.89Q229.34 57.32 228.53 59.87Q227.71 62.42 227.71 65.61L227.71 65.61L227.71 82L216.97 82L216.97 65.41Q216.97 61.67 216.32 59.29Q215.68 56.91 214.42 55.68Q213.16 54.46 211.26 54.46L211.26 54.46Q209.08 54.46 207.58 55.89Q206.09 57.32 205.31 59.87Q204.52 62.42 204.52 65.61L204.52 65.61L204.52 82ZM279.73 82.95L279.73 82.95Q276.33 82.95 273.78 81.66Q271.23 80.37 269.63 77.78Q268.04 75.20 267.49 71.39L267.49 71.39L266.20 71.39L266.00 82L257.02 82L257.02 64.39L257.02 33.04L267.97 33.04L267.97 44.94Q267.97 46.57 267.73 48.37Q267.49 50.18 267.12 52.15Q266.74 54.12 266.34 56.36L266.34 56.36L267.90 56.36Q268.85 52.69 270.42 50.24Q271.98 47.80 274.33 46.54Q276.67 45.28 279.87 45.28L279.87 45.28Q284.36 45.28 287.65 47.59Q290.95 49.90 292.79 54.15Q294.62 58.40 294.62 64.32L294.62 64.32Q294.62 70.03 292.82 74.21Q291.02 78.40 287.69 80.67Q284.36 82.95 279.73 82.95ZM275.65 74.11L275.65 74.11Q277.90 74.11 279.60 72.85Q281.30 71.60 282.21 69.32Q283.13 67.04 283.13 63.98L283.13 63.98Q283.13 60.85 282.25 58.64Q281.36 56.43 279.77 55.21Q278.17 53.98 275.92 53.98L275.92 53.98Q274.43 53.98 273.17 54.53Q271.91 55.07 270.96 56.02Q270.01 56.98 269.33 58.17Q268.65 59.36 268.31 60.68Q267.97 62.01 267.97 63.30L267.97 63.30L267.97 64.73Q267.97 66.16 268.38 67.79Q268.78 69.42 269.70 70.85Q270.62 72.28 272.08 73.19Q273.54 74.11 275.65 74.11ZM315.57 82.95L315.57 82.95Q310.13 82.95 305.95 80.84Q301.76 78.74 299.38 74.52Q297.00 70.30 297.00 63.98L297.00 63.98Q297.00 57.66 299.38 53.47Q301.76 49.29 305.98 47.22Q310.20 45.14 315.64 45.14L315.64 45.14Q321.08 45.14 325.29 47.25Q329.51 49.36 331.89 53.54Q334.27 57.72 334.27 64.05L334.27 64.05Q334.27 70.51 331.82 74.72Q329.37 78.94 325.12 80.95Q320.87 82.95 315.57 82.95ZM315.91 75.00L315.91 75.00Q318.36 75.00 319.99 73.87Q321.62 72.75 322.44 70.44Q323.25 68.13 323.25 64.73L323.25 64.73Q323.25 61.12 322.37 58.64Q321.48 56.16 319.75 54.83Q318.02 53.51 315.30 53.51L315.30 53.51Q312.98 53.51 311.32 54.63Q309.65 55.75 308.84 58.06Q308.02 60.38 308.02 63.84L308.02 63.84Q308.02 69.42 310.09 72.21Q312.17 75.00 315.91 75.00Z" fill="#FFFFFF" />
  </g>
</svg>
